<svg xmlns="http://www.w3.org/2000/svg" viewBox="0 0 1200 1040" width="1200" height="1040">
  <defs>
    <linearGradient id="skyGradient" x1="0%" y1="0%" x2="100%" y2="100%">
      <stop offset="0%" stop-color="#0ea5e9"/><stop offset="100%" stop-color="#0284c7"/>
    </linearGradient>
    <linearGradient id="purpleGradient" x1="0%" y1="0%" x2="100%" y2="100%">
      <stop offset="0%" stop-color="#a855f7"/><stop offset="100%" stop-color="#7c3aed"/>
    </linearGradient>
    <linearGradient id="blueGradient" x1="0%" y1="0%" x2="100%" y2="100%">
      <stop offset="0%" stop-color="#3b82f6"/><stop offset="100%" stop-color="#2563eb"/>
    </linearGradient>
    <linearGradient id="orangeGradient" x1="0%" y1="0%" x2="100%" y2="100%">
      <stop offset="0%" stop-color="#f97316"/><stop offset="100%" stop-color="#ea580c"/>
    </linearGradient>
    <linearGradient id="greenGradient" x1="0%" y1="0%" x2="100%" y2="100%">
      <stop offset="0%" stop-color="#22c55e"/><stop offset="100%" stop-color="#16a34a"/>
    </linearGradient>
    <linearGradient id="tealGradient" x1="0%" y1="0%" x2="100%" y2="100%">
      <stop offset="0%" stop-color="#42b883"/><stop offset="100%" stop-color="#35495e"/>
    </linearGradient>
    <marker id="arrowSky" markerWidth="10" markerHeight="7" refX="9" refY="3.5" orient="auto">
      <polygon points="0 0, 10 3.5, 0 7" fill="#0ea5e9"/>
    </marker>
    <marker id="arrowPurple" markerWidth="10" markerHeight="7" refX="9" refY="3.5" orient="auto">
      <polygon points="0 0, 10 3.5, 0 7" fill="#a855f7"/>
    </marker>
    <marker id="arrowBlue" markerWidth="10" markerHeight="7" refX="9" refY="3.5" orient="auto">
      <polygon points="0 0, 10 3.5, 0 7" fill="#3b82f6"/>
    </marker>
    <marker id="arrowOrange" markerWidth="10" markerHeight="7" refX="9" refY="3.5" orient="auto">
      <polygon points="0 0, 10 3.5, 0 7" fill="#f97316"/>
    </marker>
    <marker id="arrowGreen" markerWidth="10" markerHeight="7" refX="9" refY="3.5" orient="auto">
      <polygon points="0 0, 10 3.5, 0 7" fill="#22c55e"/>
    </marker>
    <marker id="arrowTeal" markerWidth="10" markerHeight="7" refX="9" refY="3.5" orient="auto">
      <polygon points="0 0, 10 3.5, 0 7" fill="#42b883"/>
    </marker>
    <marker id="arrowRed" markerWidth="10" markerHeight="7" refX="9" refY="3.5" orient="auto">
      <polygon points="0 0, 10 3.5, 0 7" fill="#ef4444"/>
    </marker>
    <filter id="shadow" x="-4%" y="-4%" width="108%" height="112%">
      <feDropShadow dx="0" dy="2" stdDeviation="4" flood-color="#00000018"/>
    </filter>
  </defs>

  <style>
    .flow-line-sky { stroke-dasharray: 8,4; animation: dash-sky 0.5s linear infinite; }
    .flow-line-purple { stroke-dasharray: 8,4; animation: dash-purple 0.5s linear infinite; }
    .flow-line-blue { stroke-dasharray: 8,4; animation: dash-blue 0.5s linear infinite; }
    .flow-line-orange { stroke-dasharray: 8,4; animation: dash-orange 0.5s linear infinite; }
    .flow-line-green { stroke-dasharray: 8,4; animation: dash-green 0.5s linear infinite; }
    .flow-line-teal { stroke-dasharray: 8,4; animation: dash-teal 0.5s linear infinite; }
    .flow-line-red { stroke-dasharray: 6,4; animation: dash-red 0.4s linear infinite; }
    @keyframes dash-sky { to { stroke-dashoffset: -12; } }
    @keyframes dash-purple { to { stroke-dashoffset: -12; } }
    @keyframes dash-blue { to { stroke-dashoffset: -12; } }
    @keyframes dash-orange { to { stroke-dashoffset: -12; } }
    @keyframes dash-green { to { stroke-dashoffset: -12; } }
    @keyframes dash-teal { to { stroke-dashoffset: -12; } }
    @keyframes dash-red { to { stroke-dashoffset: -10; } }
  </style>

  <!-- Background -->
  <rect width="1200" height="1040" fill="#ffffff"/>
  <rect x="0" y="0" width="1200" height="50" fill="#faf5ff" stroke="none"/>
  <text x="600" y="32" text-anchor="middle" font-family="Arial,sans-serif" font-size="20" font-weight="bold" fill="#1e1e2e">Temporal Order Saga Architecture / 订单 Saga 编排架构</text>

  <!-- ========== Row 1: Browser + Contracts ========== -->
  <!-- Browser -->
  <g transform="translate(310,65)" filter="url(#shadow)">
    <rect width="320" height="95" rx="12" fill="#f0f9ff" stroke="#0ea5e9" stroke-width="2"/>
    <rect width="320" height="34" rx="12" fill="url(#skyGradient)"/>
    <rect x="0" y="22" width="320" height="12" fill="url(#skyGradient)"/>
    <text x="160" y="23" text-anchor="middle" font-family="Arial,sans-serif" font-size="13" font-weight="bold" fill="#fff">Browser / 前端浏览器</text>
    <text x="160" y="56" text-anchor="middle" font-family="Arial,sans-serif" font-size="11" fill="#334155">wwwroot/ SPA · 用户选择器</text>
    <text x="160" y="78" text-anchor="middle" font-family="Arial,sans-serif" font-size="10.5" fill="#64748b">HTML · CSS · JS · 余额显示 · 余额警告</text>
  </g>

  <!-- Contracts -->
  <g transform="translate(830,65)" filter="url(#shadow)">
    <rect width="290" height="145" rx="12" fill="#f0fdf4" stroke="#42b883" stroke-width="2"/>
    <rect width="290" height="34" rx="12" fill="url(#tealGradient)"/>
    <rect x="0" y="22" width="290" height="12" fill="url(#tealGradient)"/>
    <text x="145" y="23" text-anchor="middle" font-family="Arial,sans-serif" font-size="13" font-weight="bold" fill="#fff">OrderSaga.Contracts / 共享契约</text>
    <text x="20" y="56" font-family="Consolas,monospace" font-size="10" fill="#334155">record OrderInput(+CustomerBalance)</text>
    <text x="20" y="73" font-family="Consolas,monospace" font-size="10" fill="#334155">record OrderResult, ReserveInventoryInput</text>
    <text x="20" y="90" font-family="Consolas,monospace" font-size="10" fill="#334155">record PaymentInput(+CustomerBalance)</text>
    <text x="20" y="107" font-family="Consolas,monospace" font-size="10" fill="#334155">record CreateOrderRequest, CreateOrderItem</text>
    <text x="20" y="124" font-family="Consolas,monospace" font-size="10" fill="#334155">enum OrderStatus (5 states)</text>
    <text x="20" y="138" font-family="Arial,sans-serif" font-size="9" fill="#94a3b8">net10.0 · No external dependencies</text>
  </g>

  <!-- Flow: Browser → Client -->
  <path d="M470 160 L470 195 L270 195 L270 230" stroke="#e0f2fe" stroke-width="6" fill="none" stroke-linecap="round"/>
  <path d="M470 160 L470 195 L270 195 L270 230" class="flow-line-sky" stroke="#0ea5e9" stroke-width="3" fill="none" marker-end="url(#arrowSky)" stroke-linecap="round"/>

  <!-- ========== Row 2: Client WebAPI + SQLite ========== -->
  <!-- Client WebAPI -->
  <g transform="translate(80,230)" filter="url(#shadow)">
    <rect width="400" height="200" rx="12" fill="#faf5ff" stroke="#a855f7" stroke-width="2"/>
    <rect width="400" height="34" rx="12" fill="url(#purpleGradient)"/>
    <rect x="0" y="22" width="400" height="12" fill="url(#purpleGradient)"/>
    <text x="200" y="23" text-anchor="middle" font-family="Arial,sans-serif" font-size="13" font-weight="bold" fill="#fff">Client WebAPI / 购物服务</text>
    <rect x="15" y="46" width="115" height="50" rx="6" fill="#f5f3ff" stroke="#c4b5fd" stroke-width="1"/>
    <text x="72" y="66" text-anchor="middle" font-family="Arial,sans-serif" font-size="9.5" font-weight="bold" fill="#6d28d9">Products</text>
    <text x="72" y="82" text-anchor="middle" font-family="Consolas,monospace" font-size="8" fill="#8b5cf6">GET /products</text>
    <rect x="140" y="46" width="115" height="50" rx="6" fill="#f5f3ff" stroke="#c4b5fd" stroke-width="1"/>
    <text x="197" y="66" text-anchor="middle" font-family="Arial,sans-serif" font-size="9.5" font-weight="bold" fill="#6d28d9">Orders</text>
    <text x="197" y="82" text-anchor="middle" font-family="Consolas,monospace" font-size="8" fill="#8b5cf6">POST/GET /orders</text>
    <rect x="265" y="46" width="120" height="50" rx="6" fill="#f5f3ff" stroke="#c4b5fd" stroke-width="1"/>
    <text x="325" y="66" text-anchor="middle" font-family="Arial,sans-serif" font-size="9.5" font-weight="bold" fill="#6d28d9">Customers</text>
    <text x="325" y="82" text-anchor="middle" font-family="Consolas,monospace" font-size="8" fill="#8b5cf6">GET /customers</text>
    <rect x="15" y="108" width="370" height="36" rx="6" fill="#f5f3ff" stroke="#c4b5fd" stroke-width="1"/>
    <text x="200" y="131" text-anchor="middle" font-family="Arial,sans-serif" font-size="10" fill="#6d28d9">TemporalClient → localhost:7233 · task-queue: order-saga</text>
    <text x="200" y="164" text-anchor="middle" font-family="Arial,sans-serif" font-size="10" fill="#7c3aed">EF Core + SQLite · StaticFiles · Controllers</text>
    <text x="200" y="182" text-anchor="middle" font-family="Arial,sans-serif" font-size="9" fill="#a78bfa">ASP.NET Core Web · net10.0</text>
  </g>

  <!-- SQLite -->
  <g transform="translate(720,255)" filter="url(#shadow)">
    <rect width="270" height="145" rx="12" fill="#eff6ff" stroke="#3b82f6" stroke-width="2"/>
    <rect width="270" height="34" rx="12" fill="url(#blueGradient)"/>
    <rect x="0" y="22" width="270" height="12" fill="url(#blueGradient)"/>
    <text x="135" y="23" text-anchor="middle" font-family="Arial,sans-serif" font-size="13" font-weight="bold" fill="#fff">SQLite / 商品 + 用户数据库</text>
    <text x="135" y="56" text-anchor="middle" font-family="Arial,sans-serif" font-size="10.5" fill="#1e40af">shop.db</text>
    <rect x="15" y="68" width="110" height="56" rx="4" fill="#dbeafe" stroke="#93c5fd" stroke-width="1"/>
    <text x="70" y="84" text-anchor="middle" font-family="Consolas,monospace" font-size="10" font-weight="bold" fill="#1d4ed8">Products</text>
    <text x="70" y="98" text-anchor="middle" font-family="Consolas,monospace" font-size="8.5" fill="#3b82f6">10 items · 5 categories</text>
    <text x="70" y="114" text-anchor="middle" font-family="Consolas,monospace" font-size="8.5" fill="#3b82f6">Price · Stock</text>
    <rect x="140" y="68" width="115" height="56" rx="4" fill="#dbeafe" stroke="#93c5fd" stroke-width="1"/>
    <text x="197" y="84" text-anchor="middle" font-family="Consolas,monospace" font-size="10" font-weight="bold" fill="#1d4ed8">Customers</text>
    <text x="197" y="98" text-anchor="middle" font-family="Consolas,monospace" font-size="8.5" fill="#3b82f6">3 users with balance</text>
    <text x="197" y="114" text-anchor="middle" font-family="Consolas,monospace" font-size="8.5" fill="#3b82f6">¥0 / ¥1500 / ¥10000</text>
  </g>

  <!-- Flow: Client → SQLite -->
  <path d="M480 340 L610 340 L610 320 L720 320" stroke="#dbeafe" stroke-width="6" fill="none" stroke-linecap="round"/>
  <path d="M480 340 L610 340 L610 320 L720 320" class="flow-line-blue" stroke="#3b82f6" stroke-width="3" fill="none" marker-end="url(#arrowBlue)" stroke-linecap="round"/>
  <text x="590" y="336" text-anchor="middle" font-family="Arial,sans-serif" font-size="9" fill="#3b82f6" transform="rotate(-2,590,336)">EF Core</text>

  <!-- Flow: Client → Temporal Worker (main vertical) -->
  <path d="M280 430 L280 510" stroke="#fed7aa" stroke-width="6" fill="none" stroke-linecap="round"/>
  <path d="M280 430 L280 510" class="flow-line-orange" stroke="#f97316" stroke-width="3" fill="none" marker-end="url(#arrowOrange)" stroke-linecap="round"/>
  <text x="295" y="475" font-family="Arial,sans-serif" font-size="9" fill="#ea580c">StartWorkflow</text>

  <!-- Flow: Contracts → Client (dashed reference) -->
  <path d="M830 190 L830 210 L510 210 L510 260 L480 260" stroke="#bbf7d0" stroke-width="4" fill="none" stroke-linecap="round" stroke-dasharray="4,4"/>
  <path d="M830 190 L830 210 L510 210 L510 260 L480 260" class="flow-line-teal" stroke="#42b883" stroke-width="2" fill="none" stroke-linecap="round" stroke-dasharray="4,4"/>

  <!-- ========== Row 3: Temporal Worker + Saga Flow ========== -->
  <g transform="translate(40,510)" filter="url(#shadow)">
    <rect width="1120" height="210" rx="14" fill="#fff7ed" stroke="#f97316" stroke-width="2"/>
    <rect width="1120" height="36" rx="14" fill="url(#orangeGradient)"/>
    <rect x="0" y="24" width="1120" height="12" fill="url(#orangeGradient)"/>
    <text x="560" y="24" text-anchor="middle" font-family="Arial,sans-serif" font-size="14" font-weight="bold" fill="#fff">Temporal Worker / Saga 编排引擎 (OrderSaga.Workflows)</text>

    <!-- Workflow box -->
    <rect x="20" y="48" width="200" height="148" rx="8" fill="#ffedd5" stroke="#fb923c" stroke-width="1.5"/>
    <text x="120" y="68" text-anchor="middle" font-family="Arial,sans-serif" font-size="11" font-weight="bold" fill="#c2410c">OrderSagaWorkflow</text>
    <text x="120" y="88" text-anchor="middle" font-family="Consolas,monospace" font-size="9" fill="#ea580c">[Workflow] attribute</text>
    <line x1="40" y1="96" x2="200" y2="96" stroke="#fed7aa" stroke-width="1"/>
    <text x="120" y="112" text-anchor="middle" font-family="Consolas,monospace" font-size="9" fill="#9a3412">ExecuteAsync(OrderInput)</text>
    <text x="120" y="128" text-anchor="middle" font-family="Consolas,monospace" font-size="9" fill="#9a3412">CancelSignal support</text>
    <text x="120" y="144" text-anchor="middle" font-family="Consolas,monospace" font-size="9" fill="#9a3412">Stack&lt;Func&lt;Task&gt;&gt; _comp</text>
    <text x="120" y="160" text-anchor="middle" font-family="Consolas,monospace" font-size="9" fill="#9a3412">GetCurrentStatus query</text>
    <text x="120" y="178" text-anchor="middle" font-family="Arial,sans-serif" font-size="9" fill="#c2410c">LIFO compensation stack</text>

    <!-- Step 1: Reserve Inventory -->
    <rect x="260" y="55" width="190" height="70" rx="8" fill="#dcfce7" stroke="#22c55e" stroke-width="1.5"/>
    <text x="355" y="75" text-anchor="middle" font-family="Arial,sans-serif" font-size="11" font-weight="bold" fill="#15803d">Step 1: Reserve</text>
    <text x="355" y="93" text-anchor="middle" font-family="Consolas,monospace" font-size="9" fill="#16a34a">ReserveInventoryAsync</text>
    <text x="355" y="110" text-anchor="middle" font-family="Arial,sans-serif" font-size="9" fill="#22c55e">10% random failure · 3x retry</text>

    <!-- Arrow Step1 → Step2 -->
    <path d="M450 90 L490 90" stroke="#dcfce7" stroke-width="5" fill="none" stroke-linecap="round"/>
    <path d="M450 90 L490 90" class="flow-line-green" stroke="#22c55e" stroke-width="2.5" fill="none" marker-end="url(#arrowGreen)" stroke-linecap="round"/>

    <!-- Step 2: Authorize Payment -->
    <rect x="500" y="55" width="190" height="70" rx="8" fill="#dcfce7" stroke="#22c55e" stroke-width="1.5"/>
    <text x="595" y="75" text-anchor="middle" font-family="Arial,sans-serif" font-size="11" font-weight="bold" fill="#15803d">Step 2: Payment</text>
    <text x="595" y="93" text-anchor="middle" font-family="Consolas,monospace" font-size="9" fill="#16a34a">AuthorizePaymentAsync</text>
    <text x="595" y="110" text-anchor="middle" font-family="Arial,sans-serif" font-size="9" fill="#22c55e">Balance check · 3x retry</text>

    <!-- Arrow Step2 → Step3 -->
    <path d="M690 90 L730 90" stroke="#dcfce7" stroke-width="5" fill="none" stroke-linecap="round"/>
    <path d="M690 90 L730 90" class="flow-line-green" stroke="#22c55e" stroke-width="2.5" fill="none" marker-end="url(#arrowGreen)" stroke-linecap="round"/>

    <!-- Step 3: Send Email -->
    <rect x="740" y="55" width="170" height="70" rx="8" fill="#dcfce7" stroke="#22c55e" stroke-width="1.5"/>
    <text x="825" y="75" text-anchor="middle" font-family="Arial,sans-serif" font-size="11" font-weight="bold" fill="#15803d">Step 3: Confirm</text>
    <text x="825" y="93" text-anchor="middle" font-family="Consolas,monospace" font-size="9" fill="#16a34a">SendEmailAsync</text>
    <text x="825" y="110" text-anchor="middle" font-family="Arial,sans-serif" font-size="9" fill="#22c55e">5x retry · Notification</text>

    <!-- Done label -->
    <rect x="940" y="65" width="70" height="40" rx="6" fill="#22c55e"/>
    <text x="975" y="84" text-anchor="middle" font-family="Arial,sans-serif" font-size="10" font-weight="bold" fill="#fff">DONE</text>
    <text x="975" y="96" text-anchor="middle" font-family="Arial,sans-serif" font-size="8" fill="#dcfce7">Completed</text>

    <!-- Arrow Step3 → Done -->
    <path d="M910 90 L940 85" stroke="#bbf7d0" stroke-width="5" fill="none" stroke-linecap="round"/>
    <path d="M910 90 L940 85" class="flow-line-green" stroke="#22c55e" stroke-width="2.5" fill="none" marker-end="url(#arrowGreen)" stroke-linecap="round"/>

    <!-- Compensation (reverse) -->
    <rect x="260" y="142" width="560" height="55" rx="8" fill="#fef2f2" stroke="#fca5a5" stroke-width="1.5" stroke-dasharray="6,3"/>
    <text x="540" y="162" text-anchor="middle" font-family="Arial,sans-serif" font-size="11" font-weight="bold" fill="#dc2626">Compensation / 补偿事务 (LIFO Stack)</text>
    <path d="M800 180 L740 180 L595 180 L450 180 L355 180" stroke="#fecaca" stroke-width="4" fill="none" stroke-linecap="round"/>
    <path d="M800 180 L740 180 L595 180 L450 180 L355 180" class="flow-line-red" stroke="#ef4444" stroke-width="2" fill="none" marker-end="url(#arrowRed)" stroke-linecap="round"/>
    <text x="450" y="174" font-family="Consolas,monospace" font-size="9" fill="#dc2626">VoidPayment</text>
    <text x="640" y="174" font-family="Consolas,monospace" font-size="9" fill="#dc2626">ReleaseInventory</text>

    <!-- Activities note -->
    <rect x="930" y="135" width="175" height="60" rx="6" fill="#ffedd5" stroke="#fb923c" stroke-width="1"/>
    <text x="1018" y="153" text-anchor="middle" font-family="Arial,sans-serif" font-size="10" font-weight="bold" fill="#c2410c">OrderSagaActivities</text>
    <text x="1018" y="168" text-anchor="middle" font-family="Arial,sans-serif" font-size="9" fill="#ea580c">6 activity methods</text>
    <text x="1018" y="183" text-anchor="middle" font-family="Arial,sans-serif" font-size="9" fill="#f97316">[Activity] attributed</text>
  </g>

  <!-- ========== Row 4: Docker Infrastructure ========== -->
  <!-- PostgreSQL -->
  <g transform="translate(80,790)" filter="url(#shadow)">
    <rect width="280" height="110" rx="12" fill="#f0fdf4" stroke="#22c55e" stroke-width="2"/>
    <rect width="280" height="32" rx="12" fill="url(#greenGradient)"/>
    <rect x="0" y="20" width="280" height="12" fill="url(#greenGradient)"/>
    <text x="140" y="22" text-anchor="middle" font-family="Arial,sans-serif" font-size="12" font-weight="bold" fill="#fff">PostgreSQL 16</text>
    <text x="140" y="54" text-anchor="middle" font-family="Consolas,monospace" font-size="10" fill="#15803d">postgres:16-alpine</text>
    <text x="140" y="72" text-anchor="middle" font-family="Arial,sans-serif" font-size="10" fill="#16a34a">Port: 5432 · DB: temporal</text>
    <text x="140" y="92" text-anchor="middle" font-family="Arial,sans-serif" font-size="9.5" fill="#22c55e">User/PW: temporal · Volume: pgdata</text>
  </g>

  <!-- Temporal Server -->
  <g transform="translate(420,790)" filter="url(#shadow)">
    <rect width="300" height="110" rx="12" fill="#fff7ed" stroke="#f97316" stroke-width="2"/>
    <rect width="300" height="32" rx="12" fill="url(#orangeGradient)"/>
    <rect x="0" y="20" width="300" height="12" fill="url(#orangeGradient)"/>
    <text x="150" y="22" text-anchor="middle" font-family="Arial,sans-serif" font-size="12" font-weight="bold" fill="#fff">Temporal Server 1.25.2</text>
    <text x="150" y="54" text-anchor="middle" font-family="Consolas,monospace" font-size="10" fill="#c2410c">temporalio/auto-setup:1.25.2</text>
    <text x="150" y="72" text-anchor="middle" font-family="Arial,sans-serif" font-size="10" fill="#ea580c">gRPC: 7233 · HTTP: 8233</text>
    <text x="150" y="92" text-anchor="middle" font-family="Arial,sans-serif" font-size="9.5" fill="#f97316">Namespace: default · Depends: postgresql</text>
  </g>

  <!-- Temporal UI -->
  <g transform="translate(780,790)" filter="url(#shadow)">
    <rect width="280" height="110" rx="12" fill="#f0fdf4" stroke="#42b883" stroke-width="2"/>
    <rect width="280" height="32" rx="12" fill="url(#tealGradient)"/>
    <rect x="0" y="20" width="280" height="12" fill="url(#tealGradient)"/>
    <text x="140" y="22" text-anchor="middle" font-family="Arial,sans-serif" font-size="12" font-weight="bold" fill="#fff">Temporal UI 2.49.1</text>
    <text x="140" y="54" text-anchor="middle" font-family="Consolas,monospace" font-size="10" fill="#35495e">temporalio/ui:2.49.1</text>
    <text x="140" y="72" text-anchor="middle" font-family="Arial,sans-serif" font-size="10" fill="#42b883">Port: 8080 · http://localhost:8080</text>
    <text x="140" y="92" text-anchor="middle" font-family="Arial,sans-serif" font-size="9.5" fill="#42b883">Workflow Monitor · Depends: temporal</text>
  </g>

  <!-- Flow: Worker → Infrastructure -->
  <path d="M200 720 L200 760 L200 790" stroke="#dcfce7" stroke-width="6" fill="none" stroke-linecap="round"/>
  <path d="M200 720 L200 760 L200 790" class="flow-line-green" stroke="#22c55e" stroke-width="3" fill="none" marker-end="url(#arrowGreen)" stroke-linecap="round"/>

  <path d="M560 720 L560 760 L570 790" stroke="#fed7aa" stroke-width="6" fill="none" stroke-linecap="round"/>
  <path d="M560 720 L560 760 L570 790" class="flow-line-orange" stroke="#f97316" stroke-width="3" fill="none" marker-end="url(#arrowOrange)" stroke-linecap="round"/>

  <path d="M920 720 L920 760 L920 790" stroke="#bbf7d0" stroke-width="6" fill="none" stroke-linecap="round"/>
  <path d="M920 720 L920 760 L920 790" class="flow-line-teal" stroke="#42b883" stroke-width="3" fill="none" marker-end="url(#arrowTeal)" stroke-linecap="round"/>

  <!-- Flow: PostgreSQL → Temporal Server -->
  <path d="M360 845 L420 845" stroke="#dcfce7" stroke-width="5" fill="none" stroke-linecap="round"/>
  <path d="M360 845 L420 845" class="flow-line-green" stroke="#22c55e" stroke-width="2.5" fill="none" marker-end="url(#arrowGreen)" stroke-linecap="round"/>

  <!-- Flow: Temporal Server → UI -->
  <path d="M720 845 L780 845" stroke="#fed7aa" stroke-width="5" fill="none" stroke-linecap="round"/>
  <path d="M720 845 L780 845" class="flow-line-orange" stroke="#f97316" stroke-width="2.5" fill="none" marker-end="url(#arrowOrange)" stroke-linecap="round"/>

  <!-- Flow: Contracts → Worker (reference line) -->
  <path d="M975 210 L975 475 L700 475 L700 510" stroke="#bbf7d0" stroke-width="4" fill="none" stroke-linecap="round" stroke-dasharray="4,4"/>
  <path d="M975 210 L975 475 L700 475 L700 510" class="flow-line-teal" stroke="#42b883" stroke-width="2" fill="none" stroke-linecap="round" stroke-dasharray="4,4"/>

  <!-- ========== Process Description ========== -->
  <g transform="translate(40,930)">
    <rect width="560" height="95" rx="10" fill="#faf5ff" stroke="#c4b5fd" stroke-width="1.5"/>
    <text x="15" y="20" font-family="Arial,sans-serif" font-size="11" font-weight="bold" fill="#6d28d9">Saga Flow / 编排流程</text>
    <text x="15" y="38" font-family="Arial,sans-serif" font-size="10" fill="#475569">1. 选用户下单 → OrdersController 查余额启动工作流</text>
    <text x="15" y="53" font-family="Arial,sans-serif" font-size="10" fill="#475569">2. Workflow 按序执行: Reserve → Payment(余额检查) → Confirm</text>
    <text x="15" y="68" font-family="Arial,sans-serif" font-size="10" fill="#475569">3. 每步成功后注册补偿函数到 LIFO Stack</text>
    <text x="15" y="83" font-family="Arial,sans-serif" font-size="10" fill="#475569">4. 失败时逆序执行补偿: VoidPayment → ReleaseInventory</text>
  </g>

  <!-- ========== Legend ========== -->
  <g transform="translate(660,930)">
    <rect width="500" height="95" rx="10" fill="#f8fafc" stroke="#e2e8f0" stroke-width="1.5"/>
    <text x="15" y="20" font-family="Arial,sans-serif" font-size="11" font-weight="bold" fill="#475569">Legend / 图例</text>
    <rect x="15" y="32" width="14" height="14" rx="3" fill="#0ea5e9"/><text x="35" y="43" font-family="Arial,sans-serif" font-size="10" fill="#475569">User / Frontend</text>
    <rect x="130" y="32" width="14" height="14" rx="3" fill="#a855f7"/><text x="150" y="43" font-family="Arial,sans-serif" font-size="10" fill="#475569">WebAPI</text>
    <rect x="220" y="32" width="14" height="14" rx="3" fill="#3b82f6"/><text x="240" y="43" font-family="Arial,sans-serif" font-size="10" fill="#475569">Database</text>
    <rect x="320" y="32" width="14" height="14" rx="3" fill="#f97316"/><text x="340" y="43" font-family="Arial,sans-serif" font-size="10" fill="#475569">Process / Engine</text>
    <rect x="15" y="56" width="14" height="14" rx="3" fill="#22c55e"/><text x="35" y="67" font-family="Arial,sans-serif" font-size="10" fill="#475569">Storage</text>
    <rect x="130" y="56" width="14" height="14" rx="3" fill="#42b883"/><text x="150" y="67" font-family="Arial,sans-serif" font-size="10" fill="#475569">Shared Contract</text>
    <rect x="320" y="56" width="14" height="14" rx="3" fill="#ef4444"/><text x="340" y="67" font-family="Arial,sans-serif" font-size="10" fill="#475569">Compensation</text>
    <line x1="440" y1="39" x2="490" y2="39" stroke="#a855f7" stroke-width="2.5" stroke-dasharray="6,3"/>
    <text x="496" y="43" font-family="Arial,sans-serif" font-size="10" fill="#475569">Reference</text>
    <text x="250" y="88" text-anchor="middle" font-family="Arial,sans-serif" font-size="9" fill="#94a3b8">.NET 10 · Temporal.io SDK 1.14.0 · Docker Compose</text>
  </g>

  <!-- Docker badge -->
  <rect x="1040" y="755" width="120" height="26" rx="13" fill="#0ea5e9" opacity="0.9"/>
  <text x="1100" y="773" text-anchor="middle" font-family="Arial,sans-serif" font-size="10" font-weight="bold" fill="#fff">docker-compose</text>
</svg>
